<?xml version="1.0" encoding="UTF-8" standalone="no"?>
<svg
   enable-background="new 0 0 24 24"
   height="30px"
   viewBox="0 0 24 24"
   width="30px"
   fill="#000000"
   version="1.1"
   id="svg846"
   sodipodi:docname="html_black_24dp.svg"
   inkscape:version="1.1.1 (3bf5ae0d25, 2021-09-20)"
   xmlns:inkscape="http://www.inkscape.org/namespaces/inkscape"
   xmlns:sodipodi="http://sodipodi.sourceforge.net/DTD/sodipodi-0.dtd"
   xmlns="http://www.w3.org/2000/svg"
   xmlns:svg="http://www.w3.org/2000/svg">
  <defs
     id="defs850" />
  <sodipodi:namedview
     id="namedview848"
     pagecolor="#505050"
     bordercolor="#eeeeee"
     borderopacity="1"
     inkscape:pageshadow="0"
     inkscape:pageopacity="0"
     inkscape:pagecheckerboard="0"
     showgrid="false"
     inkscape:zoom="51.916667"
     inkscape:cx="12"
     inkscape:cy="27.40931"
     inkscape:window-width="2880"
     inkscape:window-height="1526"
     inkscape:window-x="2869"
     inkscape:window-y="-11"
     inkscape:window-maximized="1"
     inkscape:current-layer="svg846" />
  <g
     id="g840">
    <rect
       fill="none"
       height="24"
       width="24"
       id="rect838" />
  </g>
  <g
     id="g844"
     style="fill:#000000;fill-opacity:1">
    <path
       d="M3.5,9H5v6H3.5v-2.5h-2V15H0V9h1.5v2h2V9z M17.5,9H13c-0.55,0-1,0.45-1,1v5h1.5v-4.5h1V14H16v-3.51h1V15h1.5v-5 C18.5,9.45,18.05,9,17.5,9z M11,9H6v1.5h1.75V15h1.5v-4.5H11V9z M24,15v-1.5h-2.5V9H20v6H24z"
       id="path842"
       style="fill:#000000;fill-opacity:1" />
  </g>
</svg>
